/* XPM */
static char *d513dc435cd247a5c07d4aeb864f3125TYZZA4mfn27tFSXo[] = {
/* columns rows colors chars-per-pixel */
"32 32 234 2 ",
"   c #212629",
".  c #23222D",
"X  c #2A252F",
"o  c #2E373B",
"O  c #443A3B",
"+  c #484033",
"@  c #43413C",
"#  c #48403F",
"$  c #48443F",
"%  c #5E453C",
"&  c #352E44",
"*  c #3C3C4A",
"=  c #2B3658",
"-  c #3D414C",
";  c #3E4655",
":  c #3A4B57",
">  c #30445A",
",  c #3F515C",
"<  c #3F4E64",
"1  c #414043",
"2  c #4F4743",
"3  c #464348",
"4  c #4C4549",
"5  c #48484D",
"6  c #4E534F",
"7  c #42435C",
"8  c #504857",
"9  c #545056",
"0  c #595557",
"q  c #585658",
"w  c #645657",
"e  c #6B5C57",
"r  c #675F5A",
"t  c #785D5F",
"y  c #444D63",
"u  c #404D64",
"i  c #475063",
"p  c #445067",
"a  c #4E5966",
"s  c #49536B",
"d  c #4C5A6D",
"f  c #575E69",
"g  c #555E6F",
"h  c #5D5F6B",
"j  c #425474",
"k  c #4A5472",
"l  c #4A5D7B",
"z  c #505D7B",
"x  c #745F62",
"c  c #526076",
"v  c #5D6C77",
"b  c #55647C",
"n  c #5F657D",
"m  c #646266",
"M  c #696266",
"N  c #6E6961",
"B  c #61616F",
"V  c #6D636F",
"C  c #726768",
"Z  c #796D6B",
"A  c #71726B",
"S  c #706973",
"D  c #7F6970",
"F  c #68767C",
"G  c #747073",
"H  c #8A6456",
"J  c #84766A",
"K  c #907975",
"L  c #A69036",
"P  c #CC9434",
"I  c #DFAB38",
"U  c #DCBB37",
"Y  c #E7C535",
"T  c #978159",
"R  c #AB825F",
"E  c #B09F5C",
"W  c #A88F7F",
"Q  c #CABD6D",
"!  c #D9D472",
"~  c #E4DF72",
"^  c #535D80",
"/  c #4F6587",
"(  c #5A6D86",
")  c #656C89",
"_  c #706D87",
"`  c #6D7286",
"'  c #65768E",
"]  c #6D738A",
"[  c #6E738F",
"{  c #797782",
"}  c #777A88",
"|  c #767A8D",
" . c #787D8C",
".. c #7E8592",
"X. c #7D8C99",
"o. c #7382A2",
"O. c #81868D",
"+. c #8A888F",
"@. c #9D8E8F",
"#. c #979288",
"$. c #8E8891",
"%. c #8E8D9C",
"&. c #958892",
"*. c #908C96",
"=. c #9E8D98",
"-. c #849697",
";. c #989397",
":. c #9C9394",
">. c #A18E95",
",. c #AC9290",
"<. c #A49699",
"1. c #B19790",
"2. c #ADA08F",
"3. c #B3A48D",
"4. c #A1A199",
"5. c #8892A3",
"6. c #8C93A1",
"7. c #8F9AA3",
"8. c #8292A9",
"9. c #8390AD",
"0. c #9E96A0",
"q. c #9396A8",
"w. c #9F9EB6",
"e. c #95A6BE",
"r. c #ACA6A6",
"t. c #AAAAA7",
"y. c #B8AEA1",
"u. c #B4A5AC",
"i. c #B1ABAE",
"p. c #A8A6B1",
"a. c #ABAFB6",
"s. c #A3A5B9",
"d. c #A8A9BD",
"f. c #BAADB5",
"g. c #BAABBA",
"h. c #B6B5BC",
"j. c #BAB5BB",
"k. c #BCBCBA",
"l. c #BFBCBE",
"z. c #CEBF81",
"x. c #C2B5AF",
"c. c #C7ADB0",
"v. c #C7B6B3",
"b. c #BFC2B9",
"n. c #D7C1B3",
"m. c #D0C2BF",
"M. c #D1C6BF",
"N. c #D7C9BA",
"B. c #DAD2B6",
"V. c #DCD5BE",
"C. c #E0C1AA",
"Z. c #E9C8AC",
"A. c #E8CCAE",
"S. c #F3CFB1",
"D. c #E2D0B2",
"F. c #8DA1C1",
"G. c #AFB4C6",
"H. c #AEBBC6",
"J. c #ADB9C9",
"K. c #C2C5C6",
"L. c #C2C1CB",
"P. c #C5C2CF",
"I. c #DCC7C4",
"U. c #D1CEC5",
"Y. c #DECEC3",
"T. c #D0CFCF",
"R. c #D9CEC8",
"E. c #D7D4C1",
"W. c #DBD3C9",
"Q. c #DDD1CE",
"!. c #C4C9D0",
"~. c #CACAD2",
"^. c #CCCFD1",
"/. c #D7CFD1",
"(. c #CED2D4",
"). c #CED3DA",
"_. c #D0D3D1",
"`. c #D7D4D6",
"'. c #D8D6D2",
"]. c #DAD3D6",
"[. c #D3D8D2",
"{. c #EAD2C2",
"}. c #E4DAC5",
"|. c #E4D6CA",
" X c #E8D0C8",
".X c #EBD7C9",
"XX c #E1D9CF",
"oX c #E5DECE",
"OX c #F3D6C1",
"+X c #E0D9D1",
"@X c #E5DED5",
"#X c #EBDCD2",
"$X c #E3D7DA",
"%X c #E3DDD8",
"&X c #E7DDDB",
"*X c #E0DCDE",
"=X c #ECDFDA",
"-X c #E8DBDE",
";X c #EBE3CA",
":X c #F5E2C7",
">X c #F8E1C2",
",X c #F3E2CF",
"<X c #E6E1D1",
"1X c #E2E1D6",
"2X c #EFE6D6",
"3X c #EFEAD6",
"4X c #E7E1D8",
"5X c #E5E8DD",
"6X c #EFEBDF",
"7X c #FCE1D1",
"8X c #F2E6DE",
"9X c #F4EDDB",
"0X c #F9EFDA",
"qX c #F8EBDC",
"wX c #D5D3E4",
"eX c #DDD7E3",
"rX c #DDDCEA",
"tX c #DCE1E2",
"yX c #D9E8F4",
"uX c #E3E0E0",
"iX c #EFE6EA",
"pX c #E3E8EA",
"aX c #F6EEEF",
"sX c #F6F1E5",
"dX c #FDF2E0",
"fX c #FCF1E5",
"gX c #FEF6E6",
"hX c #F5F1ED",
"jX c #FFF3E8",
"kX c #FAF4EC",
"lX c #E6EFF6",
"zX c #FCF9F5",
"xX c #FFFDF6",
"cX c #FDFDF8",
/* pixels */
"Y I I I Y Y Y Y Y Y Y Y ~ ~ Y I Y Y Y Y I P P P Y Y Y Y Y Y Y Y ",
"I P I Y Y Y I Y Y I Y Y ~ Y I Y Y Y I I P P I Y Y I I Y Y Y Y Y ",
"P I Y Y Y I I Y Y I Y ~ ~ I I Y Y I I I Y Y Y Y I I Y Y Y I I P ",
"I I Y I P I Y Y I I Y ~ ~ I Y Y I I Y Y Y Y I P P I Y I } q 3.P ",
"I I I P Y Y Y I I Y Y ~ ~ I Y I I Y Y Y I I P P 5 $ 5 w X y.A.I ",
"I I P Y Y Y I I Y Y ~ ~ ~ Y I I Y I I I P W 1.n ,.t 6.V.;.qXI I ",
"I P P Y Y I I Y Y ~ ~ ~ I Y I I I I I I x @ i.Y.`.>.+XtX9XfXI I ",
"Y P I Y Y I Y ~ ~ ~ ~ Y I I I I Y Y 1 R x.8 g.L.~.uXlXD.:X;XI I ",
"I P Y Y Y Y Y Y ~ ~ ~ Y I Y 8.7.5.H k.I.Z $XP.-XeX%XF cXfXY I Y ",
"I I Y Y Y Y Y ~ ~ ~ ~ ~ ! . 7 F.6   K  XJ.q.iXaXh.gXE.3Xz.Y I I ",
"I Y Y Y Y ~ ~ ~ ~ ~ ~ ~ ~ ~ * ( OXS.O.B &XrXm.u.|.t.9X}.Y I I I ",
"Y Y Y Y ~ ~ ~ ~ Y Y ~ ~ Y I i % O d.=X$.wX].B.sXC zX8XY Y I I Y ",
"Y Y Y ~ ~ ~ ~ Y Y Y ~ Y I 4 2 C.c.G.0.j.8XdXfXJ xX2X+ Y Y I Y Y ",
"I Y ~ ~ ~ Y Y Y Y ~ ~ I Y 3 v.T.g S w.).=.#X@XxXXXY Y Y Y Y Y I ",
"Y ~ Y I Y Y Y Y ~ ~ Y Y Y # { f. X7XjXr.b.U.n.4XI E I Y Y I I I ",
"Y Y I I Y Y Y ~ ~ Y Y Y T V H./.<.r G K.kXR.2.I I I Y Y I I I Y ",
"Y I I Y Y Y ~ Y Y Y Y Y  .p.^.D Z.6XhX%X'.yX+.I I Y Y I I I Y Y ",
"I I Y I I Y Y Y Y Y Y m.&..X0 >XoX5X[.Q.tX@.M.Y Y Y Y Y Y Y Y Y ",
"P I I I Y Y Y Y Y f (.B {.0Xe <X{.W.Y Q ` *.*X~ ~ ~ Y Y I I I I ",
"P I I Y Y U e.-.a.| N N.#.,X4.pX_.I Y Y Y s.~ ~ ~ Y I P P P P P ",
"I I b > c ' a X.m [ 9 M T.:.A 1XI Y Y Y Y %.~ ~ Y I I I I I P P ",
"Y Y Y ] p < s ^ _ & : !.Y h !.I I Y Y Y ~ ~ ~ Y I Y Y Y Y P P I ",
"Y ~ Y Y I Y ) y o.f l.- Y ..Y I Y Y Y ~ ~ ~ Y Y Y Y Y Y P P I Y ",
"Y ~ Y Y Y Y Y I l , 9.Y Y ~ ~ ~ ~ ~ ~ ~ Y I I I Y Y Y I P P Y Y ",
"Y ~ Y I Y Y I I k v u Y Y Y Y ~ ~ ~ ~ Y I I I Y Y Y I I P I Y Y ",
"~ ~ I I Y I I Y z d L Y Y ~ ~ ~ ~ Y I I I Y Y Y Y Y I I I Y Y Y ",
"~ Y I I I I Y I j / Y Y ~ ~ ~ ~ Y I I I Y ~ ~ Y Y I I I Y Y Y ~ ",
"~ Y I I I Y Y I = o ~ ~ ~ ~ ~ ~ ~ ~ ~ ~ ~ ~ Y Y Y I I Y Y Y ~ ~ ",
"Y I I Y Y Y I I ; ~ ~ ~ Y Y Y ~ ~ ~ ~ ~ ~ Y Y Y Y P I Y Y ~ ~ ~ ",
"I I Y Y Y I I ~ ~ ~ ~ Y Y Y ~ ~ ~ ~ Y I I I I Y I P Y Y Y ~ ~ I ",
"Y Y Y Y I I Y ~ ~ ~ Y Y Y ~ ~ ~ ~ Y I I Y Y Y I P I Y Y ~ ~ I I ",
"Y Y I I I Y ~ ~ Y Y Y Y ~ ~ ~ ~ I I I Y Y Y I P I Y Y ~ ~ Y Y Y "
};
