/* XPM */
static char *_47cc1017b3045dfc097fc6ec54874adelhusSMCq7B0tLwQ[] = {
/* columns rows colors chars-per-pixel */
"32 32 62 1 ",
"  c #914616",
". c #B97A27",
"X c #CB4408",
"o c #CF4608",
"O c #D44808",
"+ c #D54E09",
"@ c #D74B0E",
"# c #DA4C0E",
"$ c #D45111",
"% c #D65511",
"& c #D85712",
"* c #D85918",
"= c #E05114",
"- c #E05B18",
"; c #D06E1E",
": c #D66F22",
"> c #D57720",
", c #D67224",
"< c #D57525",
"1 c #D57820",
"2 c #DA7A20",
"3 c #DF7E26",
"4 c #E07321",
"5 c #E27C20",
"6 c #E07E26",
"7 c #BE8726",
"8 c #D9851E",
"9 c #DE871E",
"0 c #CF872D",
"q c #CF882E",
"w c #DE8821",
"e c #D1842C",
"r c #DD9926",
"t c #DF972F",
"y c #CC9132",
"u c #CC9434",
"i c #DF9A31",
"p c #DF9F33",
"a c #D7923D",
"s c #DC943D",
"d c #E28522",
"f c #E38A24",
"g c #E48B24",
"h c #E38C24",
"j c #E49226",
"k c #E49627",
"l c #DFA735",
"z c #DEA836",
"x c #DFAB38",
"c c #E4B32E",
"v c #E6C233",
"b c #E7C535",
"n c #BB9445",
"m c #DC9640",
"M c #E29843",
"N c #DCAA4E",
"B c #E3A24A",
"V c #E3BC5B",
"C c #DFC560",
"Z c #E3DB6F",
"A c #E4D86D",
"S c #E4DF72",
/* pixels */
"bxxxbbbbbbbbSSbxbbbbxuuubbbbbbbb",
"xuxbbbxbbxbbSbxbbbxxe<xbbxxbbbbb",
"uxbbbxxbbxbSSxxbbx=======xbbbxxu",
"xxbxuigg66gVSxbbxt=========-xxuu",
"xxxq==========bxx============bbx",
"xxu===========ixbxxxu========bxx",
"xu0============xxxxxbbX======txx",
"bu2======XXXXXxxbb88oXX@=====2xx",
"xu9O+===XXXXXbbSSSXXXXX@===+O9xb",
"xx==OOgMaaaCSSSSSSbv888w66OO==xx",
"xv=#OOSSSSSSSnbxxx.bbbxuxxOO#=zx",
"bg=@ooss9cSS7 .xx7 7xxq;29oo@=6b",
"bg=@XXOOOOObx bkkb xuOOOOOXX@=gb",
"xg*XXXOOOOO==========OOOOOXXX&gx",
"baX1b899s==============2291b8X1x",
"b8X1bbbA================lxbb1X1b",
"b1X8bbM=====O#====#O=====fbx1X8b",
"xzOOOO#======OO##OO======#OOOOvb",
"uxOOOOO#=====OO##OO=====#OOOOOxx",
"ux=@XXXX@===O#====#O===@XXXX@=uu",
"xl=@XXXXX3============MXXXXX@=yu",
"bg=gXoOOOO#==========#OOOOoXg=,x",
"bM=dXoOOOOOj========BOOOOOoX:=6b",
"ba%@X8bx=@XXXXZSSZXXXX@=bb8X@$8b",
"baXXX8xl=@XXXXbSSSXXXX@=vb1XXX8b",
"SaX@&1x8X1bbbSSSSbxxxb8X8b1%@X8b",
"SvX@=6b1X8bbSSSSbxxxbSaX8x6=@XvS",
"SbX@=gb>X@==XXSSSSXX==@X8x6=@XSS",
"bxxb=5xxX@==XXrSSNXX==@Xbu4=bSSS",
"xxbbb3pSSmXXXXSSSSXXXX2bxqhbbSSx",
"bbbbxxbSSSb88SSSSbx18bbxuxbbSSxx",
"bbxxxbSSbbbbSSSSxxxbbbxuxbbSSbbb"
};
